<?xml version="1.0" encoding="UTF-8" standalone="no"?>
<!DOCTYPE svg PUBLIC "-//W3C//DTD SVG 1.1//EN"
 "http://www.w3.org/Graphics/SVG/1.1/DTD/svg11.dtd">
<!-- Generated by graphviz version 2.38.0 (20140413.2041)
 -->
<!-- Title: G Pages: 1 -->
<svg width="718pt" height="540pt"
 viewBox="0.00 0.00 717.52 540.00" xmlns="http://www.w3.org/2000/svg" xmlns:xlink="http://www.w3.org/1999/xlink">
<g id="graph0" class="graph" transform="scale(0.985401 0.985401) rotate(0) translate(4 544)">
<title>G</title>
<polygon fill="white" stroke="none" points="-4,4 -4,-544 724.145,-544 724.145,4 -4,4"/>
<!-- Biokepi_run_environment -->
<g id="node1" class="node"><title>Biokepi_run_environment</title>
<ellipse fill="darkturquoise" stroke="darkturquoise" cx="478.28" cy="-30" rx="103.376" ry="18"/>
<text text-anchor="middle" x="478.28" y="-25.8" font-family="Times,serif" font-size="14.00">Biokepi_run_environment</text>
</g>
<!-- Biokepi_environment_setup -->
<g id="node2" class="node"><title>Biokepi_environment_setup</title>
<ellipse fill="darkturquoise" stroke="darkturquoise" cx="176.28" cy="-270" rx="110.134" ry="18"/>
<text text-anchor="middle" x="176.28" y="-265.8" font-family="Times,serif" font-size="14.00">Biokepi_environment_setup</text>
</g>
<!-- Biokepi_environment_setup&#45;&gt;Biokepi_run_environment -->
<g id="edge1" class="edge"><title>Biokepi_environment_setup&#45;&gt;Biokepi_run_environment</title>
<path fill="none" stroke="black" d="M197.516,-252.264C250.475,-210.529 388.474,-101.774 449.05,-54.0351"/>
<polygon fill="black" stroke="black" points="451.379,-56.6559 457.067,-47.7172 447.047,-51.158 451.379,-56.6559"/>
</g>
<!-- Biokepi_bfx_tools -->
<g id="node3" class="node"><title>Biokepi_bfx_tools</title>
<ellipse fill="darkturquoise" stroke="darkturquoise" cx="478.28" cy="-150" rx="75.8812" ry="18"/>
<text text-anchor="middle" x="478.28" y="-145.8" font-family="Times,serif" font-size="14.00">Biokepi_bfx_tools</text>
</g>
<!-- Biokepi_bfx_tools&#45;&gt;Biokepi_run_environment -->
<g id="edge2" class="edge"><title>Biokepi_bfx_tools&#45;&gt;Biokepi_run_environment</title>
<path fill="none" stroke="black" d="M478.28,-131.842C478.28,-112.528 478.28,-80.8911 478.28,-58.2014"/>
<polygon fill="black" stroke="black" points="481.78,-58.1789 478.28,-48.1789 474.78,-58.179 481.78,-58.1789"/>
</g>
<!-- Biokepi_pipeline_edsl -->
<g id="node4" class="node"><title>Biokepi_pipeline_edsl</title>
<ellipse fill="darkturquoise" stroke="darkturquoise" cx="524.28" cy="-270" rx="89.8705" ry="18"/>
<text text-anchor="middle" x="524.28" y="-265.8" font-family="Times,serif" font-size="14.00">Biokepi_pipeline_edsl</text>
</g>
<!-- Biokepi_pipeline_edsl&#45;&gt;Biokepi_bfx_tools -->
<g id="edge3" class="edge"><title>Biokepi_pipeline_edsl&#45;&gt;Biokepi_bfx_tools</title>
<path fill="none" stroke="black" d="M517.591,-251.842C509.994,-232.354 497.505,-200.317 488.644,-177.588"/>
<polygon fill="black" stroke="black" points="491.87,-176.225 484.977,-168.179 485.348,-178.767 491.87,-176.225"/>
</g>
<!-- All_downloads -->
<g id="node5" class="node"><title>All_downloads</title>
<ellipse fill="#eead0e" stroke="#eead0e" cx="240.28" cy="-510" rx="64.296" ry="18"/>
<text text-anchor="middle" x="240.28" y="-505.8" font-family="Times,serif" font-size="14.00">All_downloads</text>
</g>
<!-- Biokepi -->
<g id="node6" class="node"><title>Biokepi</title>
<ellipse fill="cyan" stroke="cyan" cx="350.28" cy="-390" rx="38.2197" ry="18"/>
<text text-anchor="middle" x="350.28" y="-385.8" font-family="Times,serif" font-size="14.00">Biokepi</text>
</g>
<!-- All_downloads&#45;&gt;Biokepi -->
<g id="edge4" class="edge"><title>All_downloads&#45;&gt;Biokepi</title>
<path fill="none" stroke="black" d="M255.807,-492.344C274.855,-471.91 307.254,-437.155 328.712,-414.136"/>
<polygon fill="black" stroke="black" points="331.276,-416.519 335.535,-406.817 326.156,-411.745 331.276,-416.519"/>
</g>
<!-- Biokepi&#45;&gt;Biokepi_environment_setup -->
<g id="edge8" class="edge"><title>Biokepi&#45;&gt;Biokepi_environment_setup</title>
<path fill="none" stroke="black" d="M329.291,-374.766C299.46,-354.536 244.511,-317.272 209.22,-293.339"/>
<polygon fill="black" stroke="black" points="210.939,-290.276 200.699,-287.56 207.01,-296.069 210.939,-290.276"/>
</g>
<!-- Biokepi&#45;&gt;Biokepi_pipeline_edsl -->
<g id="edge7" class="edge"><title>Biokepi&#45;&gt;Biokepi_pipeline_edsl</title>
<path fill="none" stroke="black" d="M371.268,-374.766C401.182,-354.48 456.356,-317.063 491.635,-293.139"/>
<polygon fill="black" stroke="black" points="493.836,-295.875 500.148,-287.365 489.907,-290.081 493.836,-295.875"/>
</g>
<!-- Main -->
<g id="node7" class="node"><title>Main</title>
<ellipse fill="#eead0e" stroke="#eead0e" cx="674.28" cy="-150" rx="28.5497" ry="18"/>
<text text-anchor="middle" x="674.28" y="-145.8" font-family="Times,serif" font-size="14.00">Main</text>
</g>
<!-- Main&#45;&gt;Biokepi_run_environment -->
<g id="edge5" class="edge"><title>Main&#45;&gt;Biokepi_run_environment</title>
<path fill="none" stroke="black" d="M654.043,-136.816C621.056,-116.957 555.265,-77.3485 514.199,-52.6247"/>
<polygon fill="black" stroke="black" points="515.954,-49.5958 505.581,-47.4365 512.343,-55.5929 515.954,-49.5958"/>
</g>
<!-- Ttfi_pipeline -->
<g id="node8" class="node"><title>Ttfi_pipeline</title>
<ellipse fill="#eead0e" stroke="#eead0e" cx="460.28" cy="-510" rx="55.5854" ry="18"/>
<text text-anchor="middle" x="460.28" y="-505.8" font-family="Times,serif" font-size="14.00">Ttfi_pipeline</text>
</g>
<!-- Ttfi_pipeline&#45;&gt;Biokepi -->
<g id="edge6" class="edge"><title>Ttfi_pipeline&#45;&gt;Biokepi</title>
<path fill="none" stroke="black" d="M444.985,-492.593C425.997,-472.224 393.491,-437.354 371.945,-414.241"/>
<polygon fill="black" stroke="black" points="374.472,-411.819 365.093,-406.891 369.352,-416.592 374.472,-411.819"/>
</g>
</g>
</svg>
